# xmcd
#
# Track frame offsets:
# 150
# 28947
# 51232
# 73635
# 98367
# 120692
# 141402
# 157721
# 179931
# 198486
# 221071
#
# Disc length: 3282 seconds
#
#
# Revision: 9
# Processed by: cddbd v1.5.2PL0 Copyright (c) Steve Scherf et al.
# Submitted via: FreeRIP 2.90 
#
DISCID=a50cd00b
DTITLE=Creed - My Own Prison
DYEAR=1997
DGENRE=Rock
TTITLE0=Torn
TTITLE1=Ode
TTITLE2=My Own Prison
TTITLE3=Pity For a Dime
TTITLE4=In America
TTITLE5=Illusion
TTITLE6=Unforgiven
TTITLE7=Sister
TTITLE8=What's This Life For
TTITLE9=One
TTITLE10=Bound and Tied
EXTD=
EXTT0=
EXTT1=
EXTT2=
EXTT3=
EXTT4=
EXTT5=
EXTT6=
EXTT7=
EXTT8=
EXTT9=
EXTT10=
PLAYORDER=
